<?xml version="1.0" encoding="UTF-8"?>
<svg id="Camada_1" data-name="Camada 1" xmlns="http://www.w3.org/2000/svg" xmlns:xlink="http://www.w3.org/1999/xlink" viewBox="0 0 850.31 596.28">
  <defs>
    <style>
      .cls-1 {
        fill: #063;
      }

      .cls-1, .cls-2, .cls-3, .cls-4, .cls-5, .cls-6 {
        stroke: #1d1d1b;
        stroke-miterlimit: 10;
      }

      .cls-2 {
        fill: #683c11;
      }

      .cls-3 {
        fill: url(#Laranja_Amarelo);
      }

      .cls-4 {
        fill: #7d4e24;
      }

      .cls-5 {
        fill: url(#Gradiente_sem_nome_2);
      }

      .cls-6 {
        fill: #1d1d1b;
      }
    </style>
    <linearGradient id="Gradiente_sem_nome_2" data-name="Gradiente sem nome 2" x1="842.39" y1="265.14" x2=".5" y2="265.14" gradientUnits="userSpaceOnUse">
      <stop offset="0" stop-color="#2581c4"/>
      <stop offset=".23" stop-color="#2581c4" stop-opacity=".99"/>
      <stop offset=".38" stop-color="#2581c4" stop-opacity=".94"/>
      <stop offset=".5" stop-color="#2581c4" stop-opacity=".87"/>
      <stop offset=".62" stop-color="#2581c4" stop-opacity=".76"/>
      <stop offset=".72" stop-color="#2581c4" stop-opacity=".62"/>
      <stop offset=".81" stop-color="#2581c4" stop-opacity=".45"/>
      <stop offset=".91" stop-color="#2581c4" stop-opacity=".25"/>
      <stop offset=".99" stop-color="#2581c4" stop-opacity=".02"/>
      <stop offset="1" stop-color="#2581c4" stop-opacity="0"/>
    </linearGradient>
    <linearGradient id="Laranja_Amarelo" data-name="Laranja, Amarelo" x1="706.45" y1="106.54" x2="800.37" y2="106.54" gradientUnits="userSpaceOnUse">
      <stop offset="0" stop-color="#ffef26"/>
      <stop offset=".02" stop-color="#fee921"/>
      <stop offset=".1" stop-color="#fdd70e"/>
      <stop offset=".19" stop-color="#fdcb03"/>
      <stop offset=".28" stop-color="#fdc800"/>
      <stop offset=".67" stop-color="#f18f34"/>
      <stop offset=".89" stop-color="#e95f32"/>
      <stop offset="1" stop-color="#e3312d"/>
    </linearGradient>
  </defs>
  <rect class="cls-5" x=".5" y=".5" width="841.89" height="529.27"/>
  <path class="cls-4" d="M.5,204.77s277.68-58.78,309.43,146.62c0,0-20.27,162.84,214.19,161.49h318.27v82.9H.5V204.77Z"/>
  <path class="cls-6" d="M.5,93.28h44.57v41.89h10.81v-16.22h10.14v45.27h10.81v-76.35l16.89-9.46,13.51,8.11v82.43h22.97v-34.46h16.89v-31.08l20.27.68v101.52s-123.65-8.63-166.86-.84v-111.49Z"/>
  <g>
    <rect class="cls-2" x="494.65" y="487.87" width="4.21" height="24.34"/>
    <path class="cls-1" d="M492.05,491.8c3,1.44,6.46,1.43,9.42.07.28.27.57.54.88.78,4.78,3.81,11.74,3.03,15.56-1.75s3.03-11.74-1.75-15.56c-1.07-.86-2.26-1.48-3.49-1.88,1.86-4.45.64-9.76-3.31-12.92-4.35-3.48-10.52-3.13-14.47.57-.39-.43-.82-.84-1.29-1.21-4.78-3.81-11.74-3.03-15.56,1.75-3.16,3.96-3.16,9.43-.34,13.36-.77.56-1.48,1.24-2.1,2.02-3.81,4.78-3.03,11.74,1.75,15.56,4.44,3.55,10.77,3.12,14.71-.8Z"/>
  </g>
  <g>
    <rect class="cls-2" x="519.01" y="488.32" width="4.21" height="24.34"/>
    <path class="cls-1" d="M516.42,492.26c3,1.44,6.46,1.43,9.42.07.28.27.57.54.88.78,4.78,3.81,11.74,3.03,15.56-1.75s3.03-11.74-1.75-15.56c-1.07-.86-2.26-1.48-3.49-1.88,1.86-4.45.64-9.76-3.31-12.92-4.35-3.48-10.52-3.13-14.47.57-.39-.43-.82-.84-1.29-1.21-4.78-3.81-11.74-3.03-15.56,1.75-3.16,3.96-3.16,9.43-.34,13.36-.77.56-1.48,1.24-2.1,2.02-3.81,4.78-3.03,11.74,1.75,15.56,4.44,3.55,10.77,3.12,14.71-.8Z"/>
  </g>
  <g>
    <rect class="cls-2" x="540.48" y="487.87" width="4.21" height="24.34"/>
    <path class="cls-1" d="M537.88,491.8c3,1.44,6.46,1.43,9.42.07.28.27.57.54.88.78,4.78,3.81,11.74,3.03,15.56-1.75s3.03-11.74-1.75-15.56c-1.07-.86-2.26-1.48-3.49-1.88,1.86-4.45.64-9.76-3.31-12.92-4.35-3.48-10.52-3.13-14.47.57-.39-.43-.82-.84-1.29-1.21-4.78-3.81-11.74-3.03-15.56,1.75-3.16,3.96-3.16,9.43-.34,13.36-.77.56-1.48,1.24-2.1,2.02-3.81,4.78-3.03,11.74,1.75,15.56,4.44,3.55,10.77,3.12,14.71-.8Z"/>
  </g>
  <g>
    <rect class="cls-2" x="564.05" y="487.87" width="4.21" height="24.34"/>
    <path class="cls-1" d="M561.46,491.8c3,1.44,6.46,1.43,9.42.07.28.27.57.54.88.78,4.78,3.81,11.74,3.03,15.56-1.75s3.03-11.74-1.75-15.56c-1.07-.86-2.26-1.48-3.49-1.88,1.86-4.45.64-9.76-3.31-12.92-4.35-3.48-10.52-3.13-14.47.57-.39-.43-.82-.84-1.29-1.21-4.78-3.81-11.74-3.03-15.56,1.75-3.16,3.96-3.16,9.43-.34,13.36-.77.56-1.48,1.24-2.1,2.02-3.81,4.78-3.03,11.74,1.75,15.56,4.44,3.55,10.77,3.12,14.71-.8Z"/>
  </g>
  <g>
    <rect class="cls-2" x="592.99" y="487.87" width="4.21" height="24.34"/>
    <path class="cls-1" d="M590.39,491.8c3,1.44,6.46,1.43,9.42.07.28.27.57.54.88.78,4.78,3.81,11.74,3.03,15.56-1.75s3.03-11.74-1.75-15.56c-1.07-.86-2.26-1.48-3.49-1.88,1.86-4.45.64-9.76-3.31-12.92-4.35-3.48-10.52-3.13-14.47.57-.39-.43-.82-.84-1.29-1.21-4.78-3.81-11.74-3.03-15.56,1.75-3.16,3.96-3.16,9.43-.34,13.36-.77.56-1.48,1.24-2.1,2.02-3.81,4.78-3.03,11.74,1.75,15.56,4.44,3.55,10.77,3.12,14.71-.8Z"/>
  </g>
  <g>
    <rect class="cls-2" x="618.67" y="487.87" width="4.21" height="24.34"/>
    <path class="cls-1" d="M616.07,491.8c3,1.44,6.46,1.43,9.42.07.28.27.57.54.88.78,4.78,3.81,11.74,3.03,15.56-1.75s3.03-11.74-1.75-15.56c-1.07-.86-2.26-1.48-3.49-1.88,1.86-4.45.64-9.76-3.31-12.92-4.35-3.48-10.52-3.13-14.47.57-.39-.43-.82-.84-1.29-1.21-4.78-3.81-11.74-3.03-15.56,1.75-3.16,3.96-3.16,9.43-.34,13.36-.77.56-1.48,1.24-2.1,2.02-3.81,4.78-3.03,11.74,1.75,15.56,4.44,3.55,10.77,3.12,14.71-.8Z"/>
  </g>
  <g>
    <rect class="cls-2" x="642.24" y="487.87" width="4.21" height="24.34"/>
    <path class="cls-1" d="M639.64,491.8c3,1.44,6.46,1.43,9.42.07.28.27.57.54.88.78,4.78,3.81,11.74,3.03,15.56-1.75s3.03-11.74-1.75-15.56c-1.07-.86-2.26-1.48-3.49-1.88,1.86-4.45.64-9.76-3.31-12.92-4.35-3.48-10.52-3.13-14.47.57-.39-.43-.82-.84-1.29-1.21-4.78-3.81-11.74-3.03-15.56,1.75-3.16,3.96-3.16,9.43-.34,13.36-.77.56-1.48,1.24-2.1,2.02-3.81,4.78-3.03,11.74,1.75,15.56,4.44,3.55,10.77,3.12,14.71-.8Z"/>
  </g>
  <g>
    <rect class="cls-2" x="661.91" y="487.87" width="4.21" height="24.34"/>
    <path class="cls-1" d="M659.31,491.8c3,1.44,6.46,1.43,9.42.07.28.27.57.54.88.78,4.78,3.81,11.74,3.03,15.56-1.75s3.03-11.74-1.75-15.56c-1.07-.86-2.26-1.48-3.49-1.88,1.86-4.45.64-9.76-3.31-12.92-4.35-3.48-10.52-3.13-14.47.57-.39-.43-.82-.84-1.29-1.21-4.78-3.81-11.74-3.03-15.56,1.75-3.16,3.96-3.16,9.43-.34,13.36-.77.56-1.48,1.24-2.1,2.02-3.81,4.78-3.03,11.74,1.75,15.56,4.44,3.55,10.77,3.12,14.71-.8Z"/>
  </g>
  <g>
    <rect class="cls-2" x="687.59" y="487.87" width="4.21" height="24.34"/>
    <path class="cls-1" d="M684.99,491.8c3,1.44,6.46,1.43,9.42.07.28.27.57.54.88.78,4.78,3.81,11.74,3.03,15.56-1.75s3.03-11.74-1.75-15.56c-1.07-.86-2.26-1.48-3.49-1.88,1.86-4.45.64-9.76-3.31-12.92-4.35-3.48-10.52-3.13-14.47.57-.39-.43-.82-.84-1.29-1.21-4.78-3.81-11.74-3.03-15.56,1.75-3.16,3.96-3.16,9.43-.34,13.36-.77.56-1.48,1.24-2.1,2.02-3.81,4.78-3.03,11.74,1.75,15.56,4.44,3.55,10.77,3.12,14.71-.8Z"/>
  </g>
  <g>
    <rect class="cls-2" x="711.16" y="487.87" width="4.21" height="24.34"/>
    <path class="cls-1" d="M708.56,491.8c3,1.44,6.46,1.43,9.42.07.28.27.57.54.88.78,4.78,3.81,11.74,3.03,15.56-1.75s3.03-11.74-1.75-15.56c-1.07-.86-2.26-1.48-3.49-1.88,1.86-4.45.64-9.76-3.31-12.92-4.35-3.48-10.52-3.13-14.47.57-.39-.43-.82-.84-1.29-1.21-4.78-3.81-11.74-3.03-15.56,1.75-3.16,3.96-3.16,9.43-.34,13.36-.77.56-1.48,1.24-2.1,2.02-3.81,4.78-3.03,11.74,1.75,15.56,4.44,3.55,10.77,3.12,14.71-.8Z"/>
  </g>
  <g>
    <rect class="cls-2" x="734.73" y="487.87" width="4.21" height="24.34"/>
    <path class="cls-1" d="M732.14,491.8c3,1.44,6.46,1.43,9.42.07.28.27.57.54.88.78,4.78,3.81,11.74,3.03,15.56-1.75s3.03-11.74-1.75-15.56c-1.07-.86-2.26-1.48-3.49-1.88,1.86-4.45.64-9.76-3.31-12.92-4.35-3.48-10.52-3.13-14.47.57-.39-.43-.82-.84-1.29-1.21-4.78-3.81-11.74-3.03-15.56,1.75-3.16,3.96-3.16,9.43-.34,13.36-.77.56-1.48,1.24-2.1,2.02-3.81,4.78-3.03,11.74,1.75,15.56,4.44,3.55,10.77,3.12,14.71-.8Z"/>
  </g>
  <g>
    <rect class="cls-2" x="760.41" y="487.87" width="4.21" height="24.34"/>
    <path class="cls-1" d="M757.81,491.8c3,1.44,6.46,1.43,9.42.07.28.27.57.54.88.78,4.78,3.81,11.74,3.03,15.56-1.75s3.03-11.74-1.75-15.56c-1.07-.86-2.26-1.48-3.49-1.88,1.86-4.45.64-9.76-3.31-12.92-4.35-3.48-10.52-3.13-14.47.57-.39-.43-.82-.84-1.29-1.21-4.78-3.81-11.74-3.03-15.56,1.75-3.16,3.96-3.16,9.43-.34,13.36-.77.56-1.48,1.24-2.1,2.02-3.81,4.78-3.03,11.74,1.75,15.56,4.44,3.55,10.77,3.12,14.71-.8Z"/>
  </g>
  <g>
    <rect class="cls-2" x="783.98" y="487.87" width="4.21" height="24.34"/>
    <path class="cls-1" d="M781.39,491.8c3,1.44,6.46,1.43,9.42.07.28.27.57.54.88.78,4.78,3.81,11.74,3.03,15.56-1.75s3.03-11.74-1.75-15.56c-1.07-.86-2.26-1.48-3.49-1.88,1.86-4.45.64-9.76-3.31-12.92-4.35-3.48-10.52-3.13-14.47.57-.39-.43-.82-.84-1.29-1.21-4.78-3.81-11.74-3.03-15.56,1.75-3.16,3.96-3.16,9.43-.34,13.36-.77.56-1.48,1.24-2.1,2.02-3.81,4.78-3.03,11.74,1.75,15.56,4.44,3.55,10.77,3.12,14.71-.8Z"/>
  </g>
  <g>
    <rect class="cls-2" x="774.88" y="487.3" width="4.21" height="24.34"/>
    <path class="cls-1" d="M772.28,491.23c3,1.44,6.46,1.43,9.42.07.28.27.57.54.88.78,4.78,3.81,11.74,3.03,15.56-1.75s3.03-11.74-1.75-15.56c-1.07-.86-2.26-1.48-3.49-1.88,1.86-4.45.64-9.76-3.31-12.92-4.35-3.48-10.52-3.13-14.47.57-.39-.43-.82-.84-1.29-1.21-4.78-3.81-11.74-3.03-15.56,1.75-3.16,3.96-3.16,9.43-.34,13.36-.77.56-1.48,1.24-2.1,2.02-3.81,4.78-3.03,11.74,1.75,15.56,4.44,3.55,10.77,3.12,14.71-.8Z"/>
  </g>
  <g>
    <rect class="cls-2" x="800.56" y="487.3" width="4.21" height="24.34"/>
    <path class="cls-1" d="M797.96,491.23c3,1.44,6.46,1.43,9.42.07.28.27.57.54.88.78,4.78,3.81,11.74,3.03,15.56-1.75s3.03-11.74-1.75-15.56c-1.07-.86-2.26-1.48-3.49-1.88,1.86-4.45.64-9.76-3.31-12.92-4.35-3.48-10.52-3.13-14.47.57-.39-.43-.82-.84-1.29-1.21-4.78-3.81-11.74-3.03-15.56,1.75-3.16,3.96-3.16,9.43-.34,13.36-.77.56-1.48,1.24-2.1,2.02-3.81,4.78-3.03,11.74,1.75,15.56,4.44,3.55,10.77,3.12,14.71-.8Z"/>
  </g>
  <g>
    <rect class="cls-2" x="824.13" y="487.3" width="4.21" height="24.34"/>
    <path class="cls-1" d="M821.53,491.23c3,1.44,6.46,1.43,9.42.07.28.27.57.54.88.78,4.78,3.81,11.74,3.03,15.56-1.75s3.03-11.74-1.75-15.56c-1.07-.86-2.26-1.48-3.49-1.88,1.86-4.45.64-9.76-3.31-12.92-4.35-3.48-10.52-3.13-14.47.57-.39-.43-.82-.84-1.29-1.21-4.78-3.81-11.74-3.03-15.56,1.75-3.16,3.96-3.16,9.43-.34,13.36-.77.56-1.48,1.24-2.1,2.02-3.81,4.78-3.03,11.74,1.75,15.56,4.44,3.55,10.77,3.12,14.71-.8Z"/>
  </g>
  <circle class="cls-3" cx="753.41" cy="106.54" r="46.96"/>
</svg>